<svg width="40" height="40" viewBox="0 0 40 40" fill="none" xmlns="http://www.w3.org/2000/svg">
<path d="M24.0673 14.1775C23.2961 14.5486 22.6044 14.4451 21.8971 14.0576C20.5772 13.3346 19.2329 12.6531 17.9007 11.9509C17.2449 11.6052 17.2192 11.6118 16.8544 12.2577C16.315 13.213 15.7704 14.1656 15.2321 15.1214C15.1374 15.2896 15.0198 15.4527 15.0135 15.7161C15.658 15.757 16.2989 15.8001 16.9402 15.8378C18.1802 15.9107 19.4273 15.924 20.6585 16.0665C22.1254 16.2362 22.8364 17.3737 22.4212 18.7453C22.2215 19.4049 21.878 20.0063 21.5562 20.6142C20.4847 22.6388 19.4029 24.6583 18.3296 26.6821C17.9687 27.3626 18.0877 27.9587 18.7097 28.4296C19.8004 29.2553 19.604 29.1587 20.1542 28.1791C22.1928 24.5488 24.194 20.8989 26.2338 17.2693C28.1626 13.8374 30.0579 10.3887 31.9248 6.92529C32.4915 5.87393 33.0631 4.82502 33.6361 3.7768C33.7152 3.63197 33.7705 3.46695 33.9274 3.3722C34.0878 3.39934 34.1202 3.53497 34.1731 3.64144C36.0532 7.42758 37.9311 11.2148 39.8073 15.0027C39.9394 15.2694 40.0002 15.549 40 15.8513C39.996 23.4144 39.9985 30.9775 39.9977 38.5406C39.9977 38.7349 39.993 38.9325 39.9576 39.1228C39.8748 39.5675 39.5934 39.8315 39.1325 39.9307C38.8173 39.9986 38.5005 39.9916 38.1829 39.9917C25.9894 39.9948 13.7958 39.9975 1.60234 40C0.485393 40.0002 0.0907585 39.5605 0.0203524 38.4752C-0.0802265 36.9248 0.18863 35.4902 0.901589 34.0756C1.60104 32.6877 2.10744 31.2088 2.68628 29.7653C2.95028 29.1069 3.28482 28.4817 3.7927 27.9812C4.23575 27.5447 4.41717 27.0307 4.53873 26.4644C5.04191 24.12 5.565 21.7796 6.05045 19.4319C6.16832 18.8618 6.15695 18.2679 6.22941 17.6878C6.34497 16.7624 6.86037 15.9906 7.29744 15.1906C8.24104 13.4634 9.1881 11.738 10.1324 10.0112C10.2183 9.85398 10.3635 9.68789 10.2273 9.50973C10.1067 9.35184 9.90655 9.41713 9.73934 9.43847C9.05136 9.52626 8.36596 9.63479 7.67657 9.70945C7.34873 9.74495 7.16826 9.88534 7.04227 10.1804C6.26056 12.0109 5.44559 13.8283 4.67705 15.6639C4.3478 16.4503 3.81717 16.9639 2.96337 17.1755C2.39871 17.3154 2.22212 17.179 2.32567 16.636C2.84593 13.9077 3.36933 11.18 3.89229 8.45214C3.94726 8.16539 3.97009 7.87598 4.06823 7.59322C4.35456 6.76829 4.95897 6.31537 5.81461 6.13948C7.90422 5.70992 10.001 5.31067 12.0825 4.84725C13.538 4.5232 14.927 4.55033 16.1101 5.50437C16.9991 6.22128 17.9412 6.86503 18.8489 7.55471C20.2121 8.59057 21.5815 9.61879 22.9376 10.6633C23.1717 10.8437 23.3921 10.8652 23.6587 10.7898C25.2115 10.3506 26.7806 9.97081 28.3531 9.60343C28.5065 9.56757 28.6571 9.51932 28.8169 9.55937C28.9121 9.68553 28.8047 9.7733 28.7575 9.86382C28.3158 10.7112 27.8642 11.5539 27.428 12.4039C27.2996 12.6542 27.1243 12.8318 26.8591 12.9469C25.9363 13.3473 25.0182 13.7577 24.0673 14.1775ZM7.15104 30.0322C5.67276 32.1315 4.20578 34.2383 2.70887 36.3251C2.29325 36.9045 2.45493 37.5025 2.49958 38.141C2.66788 38.0456 2.76348 37.9053 2.88115 37.7851C5.4719 35.139 8.0644 32.4945 10.6585 29.8515C11.0724 29.4298 11.0752 29.4353 11.4928 29.8313C13.0394 31.2976 14.5854 32.7645 16.1356 34.2271C16.534 34.6031 16.5951 34.5989 16.8554 34.1406C17.3971 33.187 17.9127 32.2195 18.4608 31.2695C18.6251 30.9846 18.5575 30.8262 18.306 30.6453C17.6341 30.1622 16.9827 29.6527 16.3146 29.1646C15.4712 28.5485 15.2558 27.7805 15.5608 26.8014C16.1755 24.8276 16.74 22.8392 17.3244 20.8565C17.4804 20.3274 17.399 20.2065 16.8484 20.2443C15.2933 20.351 13.7396 20.4759 12.1852 20.5907C11.8853 20.6128 11.7325 20.7817 11.6229 21.0356C11.0505 22.3608 10.4722 23.6836 9.88909 25.0045C9.12595 26.7331 8.47748 28.5203 7.15104 30.0322Z" fill="#F0EAD6"/>
<path d="M16.2924 3.33723C16.2275 1.5001 17.2539 0.251892 18.98 0.0249799C20.6695 -0.197118 22.2582 1.08921 22.3981 2.79247C22.5359 4.46929 21.1258 5.98774 19.4211 5.99844C17.7828 6.00871 16.6861 5.08753 16.2924 3.33723Z" fill="#F0EAD6"/>
</svg>
